<?xml version="1.0" encoding="utf-8"?>
<!-- Generator: Adobe Illustrator 27.5.0, SVG Export Plug-In . SVG Version: 6.00 Build 0)  -->
<svg version="1.1" xmlns="http://www.w3.org/2000/svg" xmlns:xlink="http://www.w3.org/1999/xlink" x="0px" y="0px"
	 viewBox="0 0 1000 1000" style="enable-background:new 0 0 1000 1000;" xml:space="preserve">
<g id="bg">
	<rect x="0" style="fill:#FFFFFF;" width="1000" height="1000"/>
</g>
<g id="logo">
	<g>
		<g>
			<path d="M414.959,458.037c20.62-49.985,69.978-104.628,85.031-120.615v-17.106l-4.424,4.466
				c-3.184,3.215-61.1,62.183-88.192,120.548c-2.223,4.79-4.23,9.569-5.99,14.32c-4.839,13.058-7.797,25.857-7.797,37.736
				c0,81.861,92.861,97.12,93.798,97.265l7.084,1.091l-12.438-14.129c-20.469-5.037-76.252-24.272-76.252-84.227
				c0-8.436,1.685-17.475,4.613-26.82C411.02,468.516,414.449,459.682,414.959,458.037z"/>
			<path d="M352.199,469.228c0-24.867,4.496-52.554,24.056-83.737c1.476-11.899,4.348-23.555,9.185-34.557
				c-37.231,42.313-46.01,87.913-46.01,118.295c0,108.338,94.029,157.069,160.798,157.07v-12.21
				C438.762,614.087,352.199,569.145,352.199,469.228z"/>
			<path d="M499.99,246.78v-15.326l-3.91,3.126c-1.104,0.884-27.362,21.993-54.042,52.542
				c-36.291,41.555-54.691,78.805-54.691,110.715c0,6.662,0.252,13.329,0.923,19.962c0.579,5.727,1.473,11.432,2.84,17.037
				c1.211,4.966,2.799,9.852,4.865,14.555c1.399,3.186,2.909,6.276,4.832,9.204c1.791,2.727,3.777,5.335,5.939,7.804
				c4.6,5.253,10.003,9.476,15.661,13.627c2.902,2.129,5.902,4.329,8.652,6.643c31.291,26.322,48.804,58.973,50.971,94.82
				l12.438,14.129l-0.018-6.86c-0.104-42.147-19.239-80.475-55.337-110.84c-3.057-2.573-6.224-4.895-9.286-7.141
				c-2.734-2.006-5.475-4.01-8.076-6.175c-1.268-1.056-2.503-2.15-3.677-3.301c-0.58-0.568-1.146-1.151-1.693-1.748
				c-1.921-2.098-3.619-4.378-5.137-6.758c-1.552-2.433-2.704-4.971-3.87-7.588c-5.369-12.057-7.835-27.206-7.835-47.369
				C399.538,335.703,481.007,262.897,499.99,246.78z"/>
			<path d="M584.586,458.037c-20.62-49.985-69.978-104.628-85.031-120.615v-17.106l4.424,4.466
				c3.184,3.215,61.1,62.183,88.192,120.548c2.223,4.79,4.23,9.569,5.99,14.32c4.839,13.058,7.797,25.857,7.797,37.736
				c0,81.861-92.861,97.12-93.798,97.265l-7.084,1.091l12.438-14.129c20.469-5.037,76.252-24.272,76.252-84.227
				c0-8.436-1.685-17.475-4.613-26.82C588.525,468.516,585.096,459.682,584.586,458.037z"/>
			<path d="M647.801,469.228c0-24.867-4.496-52.554-24.056-83.737c-1.476-11.899-4.348-23.555-9.185-34.557
				c37.231,42.313,46.01,87.913,46.01,118.295c0,108.338-94.029,157.069-160.798,157.07v-12.21
				C561.238,614.087,647.801,569.145,647.801,469.228z"/>
			<path d="M499.555,246.78v-15.326l3.909,3.126c1.104,0.884,27.362,21.993,54.042,52.542
				c36.291,41.555,54.691,78.805,54.691,110.715c0,6.662-0.252,13.329-0.923,19.962c-0.579,5.727-1.473,11.432-2.84,17.037
				c-1.211,4.966-2.799,9.852-4.865,14.555c-1.399,3.186-2.909,6.276-4.832,9.204c-1.791,2.727-3.778,5.336-5.939,7.804
				c-4.6,5.253-10.003,9.476-15.661,13.627c-2.902,2.129-5.902,4.329-8.652,6.643c-31.291,26.322-48.804,58.973-50.971,94.82
				l-12.438,14.129l0.018-6.86c0.104-42.147,19.239-80.475,55.337-110.84c3.057-2.573,6.224-4.895,9.286-7.141
				c2.734-2.006,5.475-4.01,8.076-6.175c1.268-1.056,2.503-2.15,3.677-3.301c0.58-0.568,1.146-1.151,1.693-1.748
				c1.921-2.098,3.619-4.378,5.137-6.758c1.552-2.433,2.705-4.971,3.87-7.588c5.369-12.057,7.835-27.206,7.835-47.369
				C600.007,335.703,518.538,262.897,499.555,246.78z"/>
		</g>
		<g>
			<g>
				<path d="M333.488,712.486l-10.766-29.992c-0.486-1.323-0.893-2.422-1.223-3.305c-0.33-0.878-0.618-1.628-0.859-2.246
					c-0.243-0.615-0.452-1.122-0.628-1.519c-0.176-0.397-0.33-0.772-0.462-1.124c-0.486-1.099-0.98-1.948-1.486-2.543
					c-0.509-0.593-1.025-1.035-1.553-1.32c-0.529-0.288-1.067-0.452-1.618-0.496c-0.551-0.042-1.114-0.067-1.685-0.067l-0.33-0.263
					l-0.132-1.189l0.065-0.266c0.31,0,0.759,0.032,1.355,0.099c0.595,0.067,1.221,0.099,1.883,0.099c0.66,0,1.298,0,1.916,0
					c0.615,0,1.079,0,1.387,0h2.246c0.308,0,0.814,0,1.519,0c0.705,0,1.444,0,2.213,0c0.772,0,1.509,0,2.213,0
					c0.705,0,1.211,0,1.521,0l0.132,0.067l-0.198,1.189l-0.33,0.263c-1.278,0-2.268,0.144-2.973,0.429
					c-0.705,0.288-1.057,1.07-1.057,2.347c0,1.012,0.34,2.434,1.025,4.26c0.68,1.829,1.528,4.129,2.543,6.903l4.491,12.156
					c0.836,2.29,1.573,4.35,2.213,6.176c0.638,1.829,1.221,3.402,1.749,4.724c0.486-1.278,1.069-2.796,1.752-4.558
					c0.682-1.762,1.464-3.876,2.345-6.342l4.494-12.156c0.615-1.717,1.176-3.238,1.682-4.558c0.506-1.32,0.935-2.511,1.29-3.568
					c-0.221-0.702-0.474-1.387-0.762-2.047c-0.285-0.66-0.638-1.255-1.057-1.784c-0.417-0.529-0.958-0.968-1.618-1.32
					c-0.66-0.352-1.476-0.573-2.444-0.663l-0.33-0.263l-0.132-1.189l0.064-0.266c0.308,0,0.759,0.032,1.355,0.099
					c0.596,0.067,1.211,0.099,1.851,0.099c0.638,0,1.253,0,1.849,0c0.596,0,1.045,0,1.355,0h2.179c0.308,0,0.794,0,1.454,0
					c0.66,0,1.365,0,2.114,0c0.749,0,1.454,0,2.114,0s1.144,0,1.454,0l0.132,0.067l-0.198,1.189l-0.33,0.263
					c-0.484,0-1.003,0.079-1.553,0.233c-0.551,0.154-1.057,0.385-1.518,0.692c-0.461,0.31-0.836,0.685-1.124,1.124
					c-0.285,0.439-0.429,0.948-0.429,1.518c0,0.442,0.045,0.749,0.134,0.926c0.263,1.102,0.692,2.422,1.288,3.963
					c0.593,1.543,1.265,3.37,2.015,5.484l4.491,12.156c0.836,2.246,1.586,4.305,2.248,6.176c0.66,1.873,1.231,3.447,1.717,4.724
					c0.484-1.278,1.067-2.796,1.749-4.558c0.682-1.762,1.464-3.876,2.345-6.342l4.494-12.156c1.012-2.774,1.859-5.074,2.543-6.903
					c0.682-1.826,1.025-3.248,1.025-4.26c0-1.278-0.355-2.06-1.057-2.347c-0.707-0.285-1.697-0.429-2.975-0.429l-0.263-0.263
					l-0.198-1.189l0.132-0.067c0.308,0,0.794,0,1.454,0c0.66,0,1.342,0,2.047,0s1.389,0,2.049,0c0.66,0,1.144,0,1.454,0h1.253
					c0.308,0,0.762,0,1.355,0c0.595,0,1.223,0,1.883,0c0.66,0,1.298-0.032,1.916-0.099c0.615-0.067,1.079-0.099,1.387-0.099
					l0.132,0.266l-0.196,1.189l-0.333,0.263c-0.571,0-1.121,0.025-1.65,0.067c-0.529,0.045-1.057,0.208-1.586,0.496
					c-0.529,0.285-1.047,0.727-1.553,1.32c-0.506,0.596-1.025,1.444-1.553,2.543c-0.132,0.352-0.318,0.794-0.561,1.323
					c-0.243,0.529-0.65,1.519-1.221,2.973c-0.573,1.452-1.4,3.533-2.479,6.243c-1.079,2.707-2.521,6.397-4.327,11.064
					c-0.615,1.543-1.243,3.139-1.881,4.789c-0.64,1.653-1.255,3.216-1.851,4.692c-0.596,1.476-1.112,2.787-1.553,3.93
					c-0.439,1.146-0.749,1.96-0.923,2.444l-3.437,0.727h-0.792l-11.496-31.843c-0.618,1.543-1.397,3.523-2.345,5.945
					c-0.948,2.424-2.146,5.528-3.6,9.315c-0.573,1.543-1.189,3.139-1.849,4.789c-0.663,1.653-1.29,3.216-1.883,4.692
					c-0.595,1.476-1.114,2.787-1.553,3.93c-0.442,1.146-0.749,1.96-0.926,2.444l-3.434,0.727H333.488z"/>
				<path d="M416.729,668.356c0.571,0,1.442,0,2.608,0c1.166,0,2.345,0,3.536,0c1.189,0,2.256,0,3.203,0c0.945,0,1.529,0,1.749,0
					l0.33,0.596l-0.263,7.191h-1.653l-0.263-0.268c-0.089-1.027-0.211-1.829-0.365-2.409c-0.154-0.581-0.593-1.005-1.32-1.273
					c-0.727-0.266-1.816-0.402-3.27-0.402c-1.454,0-3.501,0-6.144,0h-6.342l-0.132,2.546c-0.045,0.695-0.077,1.283-0.099,1.762
					c-0.022,0.479-0.045,1.065-0.067,1.762c-0.022,0.695-0.032,1.531-0.032,2.511c0,0.978,0,3.337,0,7.077c1.323,0,2.643,0,3.963,0
					c1.323,0,2.521,0,3.6,0c1.079,0,1.993-0.077,2.742-0.233c0.749-0.156,1.255-0.39,1.521-0.702c0.352-0.355,0.66-0.712,0.923-1.07
					c0.266-0.357,0.397-0.871,0.397-1.538l0.33-0.325l1.124-0.131l0.263,0.131c-0.087,1.01-0.164,1.888-0.231,2.635
					c-0.064,0.747-0.099,1.603-0.099,2.571c0,1.055,0.035,2.032,0.099,2.933c0.067,0.901,0.144,1.878,0.231,2.93l-0.263,0.134
					l-1.189-0.134l-0.266-0.196c0-0.717-0.132-1.377-0.397-1.98c-0.263-0.603-0.571-1.107-0.923-1.511
					c-0.266-0.268-0.772-0.469-1.521-0.603c-0.749-0.134-1.65-0.201-2.707-0.201c-1.057,0-2.246,0-3.568,0c-1.32,0-2.665,0-4.03,0
					v6.382c0,1.581,0,2.864,0,3.851c0,0.988,0.01,1.863,0.032,2.633c0.022,0.767,0.055,1.471,0.099,2.107
					c0.045,0.635,0.109,1.37,0.198,2.203c0,0.839,0.439,1.255,1.323,1.255h5.615c2.643,0,4.722-0.055,6.243-0.166
					c1.519-0.109,2.675-0.34,3.466-0.692c0.794-0.352,1.355-0.891,1.685-1.618c0.33-0.727,0.65-1.685,0.958-2.873l0.265-0.266h1.717
					l-1.189,8.33l-0.529,0.655c-0.221,0-0.727,0-1.519,0c-0.794,0-1.685,0-2.677,0c-0.99,0-1.98,0-2.973,0c-0.99,0-1.774,0-2.345,0
					h-13.345c-0.308,0-0.816,0-1.519,0c-0.707,0-1.432,0-2.181,0c-0.749,0-1.476,0-2.181,0c-0.705,0-1.211,0-1.519,0l-0.132-0.067
					l0.199-1.189l0.33-0.263c0.705,0,1.365-0.035,1.983-0.099c0.615-0.067,1.121-0.253,1.518-0.563
					c0.352-0.308,0.692-0.702,1.025-1.189c0.33-0.484,0.538-1.342,0.625-2.576c0-0.308,0.012-0.672,0.035-1.092
					c0.022-0.417,0.042-0.933,0.065-1.551c0.022-0.618,0.035-1.365,0.035-2.246s0-1.983,0-3.305V684.41c0-1.541,0-2.841,0-3.898
					c0-1.057,0-1.96,0-2.71c0-0.747-0.012-1.387-0.035-1.916c-0.022-0.529-0.055-1.057-0.099-1.586
					c-0.087-1.189-0.295-2.037-0.625-2.543c-0.333-0.506-0.672-0.913-1.025-1.221c-0.397-0.308-0.903-0.496-1.518-0.563
					c-0.618-0.064-1.278-0.099-1.983-0.099l-0.33-0.263l-0.199-1.189l0.132-0.067c0.308,0,0.814,0,1.519,0c0.705,0,1.464,0,2.28,0
					c0.814,0,1.608,0,2.377,0c0.772,0,1.4,0,1.883,0H416.729z"/>
				<path d="M445.994,674.301c-0.089-1.233-0.288-2.092-0.595-2.576c-0.308-0.484-0.638-0.881-0.99-1.188
					c-0.397-0.308-0.903-0.496-1.519-0.563c-0.618-0.064-1.278-0.099-1.983-0.099l-0.33-0.263l-0.199-1.189l0.132-0.067
					c0.308,0,0.814,0,1.519,0c0.705,0,1.432,0,2.181,0c0.749,0,1.474,0,2.181,0c0.702,0,1.211,0,1.519,0h1.256
					c0.308,0,0.814,0,1.518,0c0.705,0,1.432,0,2.181,0c0.747,0,1.474,0,2.179,0c0.705,0,1.211,0,1.521,0l0.132,0.067l-0.198,1.189
					l-0.263,0.263c-0.707,0-1.377,0.035-2.015,0.099c-0.64,0.067-1.156,0.256-1.553,0.563c-0.352,0.308-0.695,0.715-1.025,1.221
					c-0.33,0.506-0.538,1.355-0.628,2.543c-0.045,0.618-0.077,1.189-0.099,1.717c-0.022,0.529-0.032,1.146-0.032,1.851
					s0,1.563,0,2.576c0,1.015,0,2.313,0,3.898v12.156c0,1.541,0,2.819,0,3.831c0,1.015,0.01,1.893,0.032,2.643
					c0.022,0.749,0.055,1.454,0.099,2.114c0.045,0.66,0.089,1.409,0.134,2.246c0.042,0.839,0.504,1.255,1.387,1.255h5.615
					c2.643,0,4.635-0.055,5.978-0.166c1.342-0.109,2.313-0.34,2.908-0.692c0.593-0.352,0.958-0.891,1.089-1.618
					c0.132-0.727,0.352-1.685,0.66-2.873l0.198-0.266h1.717l-1.189,8.33l-0.529,0.655c-0.221,0-0.628,0-1.223,0
					c-0.593,0-1.278,0-2.047,0c-0.772,0-1.563,0-2.377,0c-0.816,0-1.511,0-2.082,0h-13.345c-0.308,0-0.816,0-1.519,0
					c-0.707,0-1.432,0-2.181,0c-0.749,0-1.476,0-2.181,0c-0.705,0-1.211,0-1.519,0l-0.132-0.067l0.199-1.189l0.33-0.263
					c0.705,0,1.365-0.035,1.983-0.099c0.615-0.067,1.122-0.253,1.519-0.563c0.352-0.308,0.682-0.747,0.99-1.32
					c0.308-0.573,0.529-1.387,0.66-2.444c0.045-0.308,0.077-0.672,0.099-1.092c0.022-0.417,0.035-0.933,0.035-1.551
					c0-0.618,0-1.365,0-2.246s0-1.983,0-3.305V684.41c0-1.541,0-2.841,0-3.898c0-1.057-0.012-1.96-0.035-2.71
					c-0.022-0.747-0.042-1.387-0.065-1.916C446.071,675.358,446.036,674.83,445.994,674.301z"/>
				<path d="M485.038,674.301c-0.089-1.233-0.288-2.092-0.595-2.576c-0.308-0.484-0.638-0.881-0.99-1.188
					c-0.397-0.308-0.903-0.496-1.519-0.563c-0.618-0.064-1.278-0.099-1.983-0.099l-0.33-0.263l-0.199-1.189l0.132-0.067
					c0.308,0,0.814,0,1.518,0c0.705,0,1.432,0,2.181,0c0.749,0,1.474,0,2.181,0c0.702,0,1.211,0,1.519,0h1.256
					c0.308,0,0.814,0,1.519,0c0.705,0,1.432,0,2.181,0c0.747,0,1.474,0,2.179,0c0.705,0,1.211,0,1.521,0l0.132,0.067l-0.199,1.189
					l-0.263,0.263c-0.707,0-1.377,0.035-2.015,0.099c-0.64,0.067-1.156,0.256-1.553,0.563c-0.352,0.308-0.695,0.715-1.025,1.221
					c-0.33,0.506-0.538,1.355-0.628,2.543c-0.045,0.618-0.077,1.189-0.099,1.717c-0.022,0.529-0.032,1.146-0.032,1.851
					s0,1.563,0,2.576c0,1.015,0,2.313,0,3.898v12.156c0,1.541,0,2.819,0,3.831c0,1.015,0.01,1.893,0.032,2.643
					c0.022,0.749,0.055,1.454,0.099,2.114c0.045,0.66,0.089,1.409,0.134,2.246c0.042,0.839,0.504,1.255,1.387,1.255h5.615
					c2.643,0,4.635-0.055,5.978-0.166c1.342-0.109,2.313-0.34,2.908-0.692c0.593-0.352,0.958-0.891,1.089-1.618
					c0.132-0.727,0.352-1.685,0.66-2.873l0.198-0.266h1.717l-1.189,8.33l-0.529,0.655c-0.221,0-0.628,0-1.223,0
					c-0.593,0-1.278,0-2.047,0c-0.772,0-1.563,0-2.377,0c-0.816,0-1.511,0-2.082,0h-13.345c-0.308,0-0.816,0-1.519,0
					c-0.707,0-1.432,0-2.181,0c-0.749,0-1.476,0-2.181,0c-0.705,0-1.211,0-1.518,0l-0.132-0.067l0.199-1.189l0.33-0.263
					c0.705,0,1.365-0.035,1.983-0.099c0.615-0.067,1.122-0.253,1.519-0.563c0.352-0.308,0.682-0.747,0.99-1.32
					c0.308-0.573,0.529-1.387,0.66-2.444c0.045-0.308,0.077-0.672,0.099-1.092c0.022-0.417,0.035-0.933,0.035-1.551
					c0-0.618,0-1.365,0-2.246s0-1.983,0-3.305V684.41c0-1.541,0-2.841,0-3.898c0-1.057-0.012-1.96-0.035-2.71
					c-0.022-0.747-0.042-1.387-0.065-1.916C485.115,675.358,485.08,674.83,485.038,674.301z"/>
				<path d="M562.395,668.423l-0.131,1.161l-0.333,0.26c-0.705,0-1.377,0.032-2.015,0.099c-0.638,0.065-1.134,0.253-1.486,0.561
					c-0.352,0.31-0.67,0.707-0.958,1.191c-0.285,0.486-0.474,1.345-0.561,2.578c-0.045,0.618-0.077,1.191-0.099,1.719
					c-0.022,0.529-0.045,1.146-0.067,1.851c-0.022,0.705-0.032,1.566-0.032,2.578c0,1.015,0,2.315,0,3.901v11.635
					c0,2.469,0.01,4.496,0.032,6.082c0.022,1.588,0.045,2.943,0.067,4.067c0.022,1.124,0.067,2.127,0.132,3.007
					c0.067,0.881,0.144,1.854,0.231,2.908l-0.526,0.198h-4.097l-0.66-0.794l-23.52-35.342c0,0.442-0.01,0.881-0.032,1.323
					c-0.022,0.439-0.032,0.98-0.032,1.618s0,1.377,0,2.213c0,0.836,0,1.871,0,3.104v12.156c0,0.529,0,1.221,0,2.082
					c0,0.859,0.01,1.749,0.032,2.675c0.022,0.926,0.045,1.816,0.067,2.675c0.02,0.859,0.055,1.553,0.099,2.082
					c0.087,1.102,0.273,1.926,0.561,2.476c0.285,0.551,0.65,0.98,1.089,1.288c0.352,0.266,0.816,0.442,1.387,0.529
					c0.573,0.089,1.3,0.134,2.181,0.134l0.33,0.263l0.198,1.189l-0.131,0.067c-0.31,0-0.784,0-1.422,0s-1.31,0-2.015,0
					c-0.705,0-1.377,0-2.015,0s-1.112,0-1.419,0h-1.256c-0.308,0-0.816,0-1.518,0c-0.707,0-1.432,0-2.181,0
					c-0.749,0-1.476,0-2.181,0s-1.211,0-1.519,0l-0.131-0.067l0.198-1.189l0.33-0.263c0.792,0,1.464-0.035,2.015-0.099
					c0.551-0.067,1.045-0.253,1.486-0.563c0.308-0.221,0.628-0.583,0.958-1.089c0.33-0.509,0.561-1.402,0.692-2.68
					c0.045-0.308,0.077-0.67,0.099-1.089c0.022-0.419,0.035-0.938,0.035-1.553c0-0.618,0-1.367,0-2.248c0-0.883,0-1.985,0-3.305
					V684.39c0-1.543,0-2.844,0-3.901c0-1.057,0-1.963,0-2.712s-0.012-1.387-0.035-1.916c-0.022-0.529-0.055-1.06-0.099-1.588
					c-0.087-0.926-0.285-1.707-0.593-2.347c-0.31-0.638-0.66-1.112-1.057-1.422c-0.397-0.308-0.893-0.496-1.486-0.561
					c-0.596-0.067-1.268-0.099-2.015-0.099l-0.33-0.26l-0.198-1.161l0.131-0.266c0.308,0,0.759,0.02,1.355,0.057
					c0.593,0.037,1.198,0.072,1.816,0.109c0.615,0.037,1.223,0.072,1.816,0.109c0.595,0.037,1.047,0.055,1.355,0.055h2.313
					c0.352,0,0.846,0,1.486,0c0.638,0,1.156-0.065,1.553-0.198l0.33,0.198c0.174,0.618,0.539,1.466,1.089,2.543
					c0.551,1.079,1.211,2.28,1.983,3.6c0.769,1.323,1.605,2.732,2.509,4.228c0.903,1.499,1.819,2.973,2.742,4.427
					c3.347,5.375,6.265,9.757,8.754,13.146c2.489,3.392,4.084,5.595,4.789,6.608c0-0.308,0.01-0.596,0.035-0.859
					c0.02-0.266,0.032-0.573,0.032-0.928c0-0.352,0-0.794,0-1.322s0-1.233,0-2.117v-13.422c0-1.543,0-2.844,0-3.901
					c0-1.06-0.012-1.963-0.032-2.712c-0.025-0.749-0.045-1.39-0.067-1.918c-0.022-0.529-0.057-1.057-0.099-1.588
					c-0.089-1.233-0.288-2.092-0.596-2.578c-0.308-0.484-0.638-0.881-0.99-1.189c-0.397-0.31-0.916-0.499-1.553-0.563
					c-0.638-0.067-1.31-0.099-2.015-0.099l-0.263-0.26l-0.198-1.161l0.131-0.266c0.308,0,0.749,0.02,1.323,0.057
					c0.571,0.037,1.156,0.072,1.749,0.109c0.596,0.037,1.179,0.072,1.752,0.109c0.571,0.037,1.012,0.055,1.32,0.055h3.107
					c0.305,0,0.747,0,1.32,0c0.571,0,1.166-0.02,1.784-0.065c0.615-0.045,1.211-0.089,1.784-0.134
					c0.571-0.042,1.012-0.087,1.32-0.132L562.395,668.423z"/>
				<path d="M591.727,668.356c0.571,0,1.442,0,2.608,0s2.345,0,3.536,0c1.189,0,2.255,0,3.203,0c0.945,0,1.529,0,1.749,0l0.33,0.596
					l-0.263,7.191h-1.653l-0.263-0.268c-0.089-1.027-0.211-1.829-0.365-2.409c-0.154-0.581-0.593-1.005-1.32-1.273
					c-0.727-0.266-1.816-0.402-3.27-0.402c-1.454,0-3.501,0-6.144,0h-6.342l-0.132,2.546c-0.045,0.695-0.077,1.283-0.099,1.762
					c-0.022,0.479-0.045,1.065-0.067,1.762c-0.022,0.695-0.032,1.531-0.032,2.511c0,0.978,0,3.337,0,7.077c1.323,0,2.643,0,3.963,0
					c1.323,0,2.521,0,3.6,0c1.079,0,1.992-0.077,2.742-0.233c0.749-0.156,1.256-0.39,1.521-0.702c0.352-0.355,0.66-0.712,0.923-1.07
					c0.266-0.357,0.397-0.871,0.397-1.538l0.33-0.325l1.124-0.131l0.263,0.131c-0.087,1.01-0.164,1.888-0.231,2.635
					c-0.065,0.747-0.099,1.603-0.099,2.571c0,1.055,0.035,2.032,0.099,2.933c0.067,0.901,0.144,1.878,0.231,2.93l-0.263,0.134
					l-1.188-0.134l-0.266-0.196c0-0.717-0.131-1.377-0.397-1.98c-0.263-0.603-0.571-1.107-0.923-1.511
					c-0.266-0.268-0.772-0.469-1.521-0.603c-0.749-0.134-1.65-0.201-2.707-0.201c-1.057,0-2.246,0-3.568,0c-1.32,0-2.665,0-4.03,0
					v6.382c0,1.581,0,2.864,0,3.851c0,0.988,0.01,1.863,0.032,2.633c0.022,0.767,0.055,1.471,0.099,2.107
					c0.045,0.635,0.109,1.37,0.198,2.203c0,0.839,0.439,1.255,1.323,1.255h5.615c2.643,0,4.722-0.055,6.243-0.166
					c1.519-0.109,2.675-0.34,3.466-0.692c0.794-0.352,1.355-0.891,1.685-1.618c0.33-0.727,0.65-1.685,0.958-2.873l0.266-0.266h1.717
					l-1.189,8.33l-0.529,0.655c-0.221,0-0.727,0-1.518,0c-0.794,0-1.685,0-2.677,0c-0.99,0-1.98,0-2.973,0c-0.99,0-1.774,0-2.345,0
					h-13.344c-0.308,0-0.816,0-1.519,0c-0.707,0-1.432,0-2.181,0s-1.476,0-2.181,0s-1.211,0-1.519,0l-0.131-0.067l0.198-1.189
					l0.33-0.263c0.705,0,1.365-0.035,1.983-0.099c0.615-0.067,1.122-0.253,1.519-0.563c0.352-0.308,0.692-0.702,1.025-1.189
					c0.33-0.484,0.538-1.342,0.625-2.576c0-0.308,0.012-0.672,0.035-1.092c0.022-0.417,0.042-0.933,0.065-1.551
					c0.022-0.618,0.035-1.365,0.035-2.246s0-1.983,0-3.305V684.41c0-1.541,0-2.841,0-3.898c0-1.057,0-1.96,0-2.71
					c0-0.747-0.012-1.387-0.035-1.916c-0.022-0.529-0.055-1.057-0.099-1.586c-0.087-1.189-0.295-2.037-0.625-2.543
					c-0.333-0.506-0.672-0.913-1.025-1.221c-0.397-0.308-0.903-0.496-1.519-0.563c-0.618-0.064-1.278-0.099-1.983-0.099l-0.33-0.263
					l-0.198-1.189l0.131-0.067c0.308,0,0.814,0,1.519,0s1.464,0,2.28,0c0.814,0,1.608,0,2.377,0c0.772,0,1.399,0,1.883,0H591.727z"
					/>
				<path d="M621.652,678.199c0,1.233,0.221,2.258,0.66,3.072c0.442,0.816,1.112,1.531,2.015,2.146
					c0.903,0.618,2.05,1.179,3.437,1.685c1.387,0.506,3.027,1.047,4.92,1.62c1.63,0.526,3.238,1.122,4.824,1.782
					c1.586,0.662,3.005,1.511,4.26,2.543c1.256,1.037,2.256,2.29,3.007,3.767c0.747,1.476,1.122,3.27,1.122,5.385
					c0,2.246-0.442,4.151-1.32,5.714c-0.883,1.563-2.05,2.829-3.501,3.799c-1.454,0.968-3.139,1.672-5.054,2.114
					c-1.916,0.439-3.93,0.66-6.044,0.66c-2.732,0-5.221-0.31-7.466-0.926c-2.246-0.615-4.273-1.387-6.077-2.313l-0.266-0.859
					l1.124-7.069h1.653l0.33,0.397c0.218,2.687,1.298,4.657,3.236,5.913c1.938,1.256,4.581,1.883,7.928,1.883
					c3.437,0,6.022-0.782,7.762-2.345s2.61-3.6,2.61-6.112c0-1.541-0.33-2.829-0.99-3.866c-0.662-1.032-1.531-1.916-2.61-2.643
					c-1.079-0.725-2.313-1.33-3.7-1.816c-1.387-0.484-2.786-0.968-4.196-1.451c-1.762-0.573-3.402-1.201-4.92-1.883
					c-1.519-0.682-2.841-1.486-3.963-2.412c-1.124-0.925-2.005-2.025-2.643-3.303c-0.64-1.278-0.958-2.797-0.958-4.558
					c0-2.07,0.362-3.821,1.089-5.253c0.727-1.429,1.727-2.598,3.005-3.501c1.278-0.903,2.764-1.553,4.459-1.948
					c1.695-0.397,3.536-0.596,5.516-0.596c2.38,0,4.625,0.221,6.739,0.66c2.114,0.442,3.831,0.97,5.154,1.586l0.263,0.727
					l-0.923,5.881h-1.851l-0.33-0.33c-0.089-1.146-0.462-2.072-1.124-2.777c-0.66-0.702-1.442-1.255-2.345-1.65
					c-0.903-0.397-1.871-0.663-2.906-0.794c-1.037-0.131-1.95-0.198-2.742-0.198c-2.863,0-5.109,0.628-6.739,1.883
					C622.466,674.07,621.652,675.864,621.652,678.199z"/>
				<path d="M663.008,678.199c0,1.233,0.221,2.258,0.66,3.072c0.442,0.816,1.112,1.531,2.015,2.146
					c0.903,0.618,2.05,1.179,3.437,1.685c1.387,0.506,3.027,1.047,4.921,1.62c1.63,0.526,3.238,1.122,4.824,1.782
					c1.586,0.662,3.005,1.511,4.261,2.543c1.255,1.037,2.255,2.29,3.007,3.767c0.747,1.476,1.122,3.27,1.122,5.385
					c0,2.246-0.442,4.151-1.32,5.714c-0.883,1.563-2.049,2.829-3.501,3.799c-1.454,0.968-3.139,1.672-5.055,2.114
					c-1.916,0.439-3.93,0.66-6.044,0.66c-2.732,0-5.221-0.31-7.466-0.926c-2.246-0.615-4.273-1.387-6.077-2.313l-0.266-0.859
					l1.124-7.069h1.653l0.33,0.397c0.218,2.687,1.298,4.657,3.236,5.913c1.938,1.256,4.581,1.883,7.928,1.883
					c3.437,0,6.022-0.782,7.761-2.345s2.61-3.6,2.61-6.112c0-1.541-0.33-2.829-0.99-3.866c-0.662-1.032-1.531-1.916-2.61-2.643
					c-1.079-0.725-2.313-1.33-3.7-1.816c-1.387-0.484-2.786-0.968-4.196-1.451c-1.762-0.573-3.402-1.201-4.92-1.883
					c-1.518-0.682-2.841-1.486-3.963-2.412c-1.124-0.925-2.005-2.025-2.643-3.303c-0.64-1.278-0.958-2.797-0.958-4.558
					c0-2.07,0.362-3.821,1.089-5.253c0.727-1.429,1.727-2.598,3.005-3.501c1.278-0.903,2.764-1.553,4.459-1.948
					c1.695-0.397,3.536-0.596,5.516-0.596c2.38,0,4.625,0.221,6.739,0.66c2.114,0.442,3.831,0.97,5.154,1.586l0.263,0.727
					l-0.923,5.881h-1.851l-0.33-0.33c-0.089-1.146-0.462-2.072-1.124-2.777c-0.66-0.702-1.442-1.255-2.345-1.65
					c-0.903-0.397-1.871-0.663-2.906-0.794c-1.037-0.131-1.95-0.198-2.742-0.198c-2.863,0-5.109,0.628-6.739,1.883
					C663.822,674.07,663.008,675.864,663.008,678.199z"/>
			</g>
			<g>
				<path d="M376.24,768.546c-3.171,0-5.896-1.082-8.172-3.246c-2.277-2.166-3.414-4.839-3.414-8.02c0-3.181,0.995-5.853,2.988-8.02
					c1.992-2.164,4.543-3.246,7.654-3.246c2.439,0,4.909,0.407,7.409,1.218l-0.397,1.221c-2.439-0.732-4.777-1.099-7.012-1.099
					c-2.664,0-4.839,0.955-6.525,2.866c-1.689,1.911-2.531,4.25-2.531,7.015s0.98,5.117,2.942,7.057
					c1.962,1.943,4.315,2.913,7.059,2.913c2.398,0,4.471-0.367,6.219-1.099l0.458,1.037c-0.773,0.447-1.784,0.794-3.033,1.037
					C378.633,768.424,377.419,768.546,376.24,768.546z"/>
				<path d="M419.14,768.181V746.38h10.123v1.28h-8.659v8.02h7.836v1.251h-7.836v9.97h8.995v1.28H419.14z"/>
				<path d="M467.346,749.856l0.061,2.591v15.734h-1.464v-21.985h0.671l14.361,16.558c0.975,1.159,1.727,2.084,2.257,2.774
					c-0.082-0.975-0.123-2.094-0.123-3.355V746.38h1.464v21.984h-0.671l-14.635-16.863c-1.017-1.156-1.668-1.93-1.952-2.315
					L467.346,749.856z"/>
				<path d="M527.137,747.66h-7.378v-1.28h16.22v1.28h-7.378v20.521h-1.464V747.66z"/>
				<path d="M571.164,768.181V746.38h10.123v1.28h-8.659v8.02h7.836v1.251h-7.836v9.97h8.995v1.28H571.164z"/>
				<path d="M617.967,768.181v-21.709c1.93-0.142,3.547-0.213,4.848-0.213c2.073,0,3.78,0.534,5.121,1.6
					c1.342,1.067,2.012,2.576,2.012,4.529c0,1.32-0.386,2.551-1.158,3.69c-0.773,1.139-1.638,2.042-2.592,2.712
					c0.752,1.037,1.681,2.273,2.789,3.705c1.108,1.434,1.825,2.332,2.15,2.7c1.239,1.32,2.643,2.072,4.207,2.255l-0.03,0.975
					c-1.241-0.02-2.247-0.208-3.018-0.563c-0.773-0.355-1.51-0.901-2.211-1.63c-0.701-0.732-2.444-3.01-5.229-6.831
					c-1.992,0-3.801-0.062-5.427-0.184v8.965H617.967z M623.974,758.181c0.893,0,1.849-0.591,2.866-1.769
					c1.016-1.179,1.523-2.546,1.523-4.102c0-1.556-0.523-2.734-1.569-3.536c-1.047-0.804-2.434-1.206-4.162-1.206
					c-0.914,0-1.981,0.042-3.201,0.122v10.337C621.056,758.129,622.571,758.181,623.974,758.181z"/>
			</g>
		</g>
	</g>
</g>
</svg>
